<svg width="330" height="48" viewBox="0 0 330 48" fill="none" xmlns="http://www.w3.org/2000/svg">
<path d="M77.8184 9.14062V39H71.666V9.14062H77.8184ZM89.7129 21.8965V26.6953H76.1367V21.8965H89.7129ZM91.1484 9.14062V13.96H76.1367V9.14062H91.1484ZM92.9531 28.1309V27.7002C92.9531 26.0732 93.1855 24.5762 93.6504 23.209C94.1152 21.8281 94.792 20.6318 95.6807 19.6201C96.5693 18.6084 97.6631 17.8223 98.9619 17.2617C100.261 16.6875 101.751 16.4004 103.433 16.4004C105.114 16.4004 106.611 16.6875 107.924 17.2617C109.236 17.8223 110.337 18.6084 111.226 19.6201C112.128 20.6318 112.812 21.8281 113.276 23.209C113.741 24.5762 113.974 26.0732 113.974 27.7002V28.1309C113.974 29.7441 113.741 31.2412 113.276 32.6221C112.812 33.9893 112.128 35.1855 111.226 36.2109C110.337 37.2227 109.243 38.0088 107.944 38.5693C106.646 39.1299 105.155 39.4102 103.474 39.4102C101.792 39.4102 100.295 39.1299 98.9824 38.5693C97.6836 38.0088 96.583 37.2227 95.6807 36.2109C94.792 35.1855 94.1152 33.9893 93.6504 32.6221C93.1855 31.2412 92.9531 29.7441 92.9531 28.1309ZM98.8594 27.7002V28.1309C98.8594 29.0605 98.9414 29.9287 99.1055 30.7354C99.2695 31.542 99.5293 32.2529 99.8848 32.8682C100.254 33.4697 100.732 33.9414 101.32 34.2832C101.908 34.625 102.626 34.7959 103.474 34.7959C104.294 34.7959 104.998 34.625 105.586 34.2832C106.174 33.9414 106.646 33.4697 107.001 32.8682C107.356 32.2529 107.616 31.542 107.78 30.7354C107.958 29.9287 108.047 29.0605 108.047 28.1309V27.7002C108.047 26.7979 107.958 25.9502 107.78 25.1572C107.616 24.3506 107.35 23.6396 106.98 23.0244C106.625 22.3955 106.153 21.9033 105.565 21.5479C104.978 21.1924 104.267 21.0146 103.433 21.0146C102.599 21.0146 101.888 21.1924 101.3 21.5479C100.726 21.9033 100.254 22.3955 99.8848 23.0244C99.5293 23.6396 99.2695 24.3506 99.1055 25.1572C98.9414 25.9502 98.8594 26.7979 98.8594 27.7002ZM116.66 28.1309V27.7002C116.66 26.0732 116.893 24.5762 117.357 23.209C117.822 21.8281 118.499 20.6318 119.388 19.6201C120.276 18.6084 121.37 17.8223 122.669 17.2617C123.968 16.6875 125.458 16.4004 127.14 16.4004C128.821 16.4004 130.318 16.6875 131.631 17.2617C132.943 17.8223 134.044 18.6084 134.933 19.6201C135.835 20.6318 136.519 21.8281 136.983 23.209C137.448 24.5762 137.681 26.0732 137.681 27.7002V28.1309C137.681 29.7441 137.448 31.2412 136.983 32.6221C136.519 33.9893 135.835 35.1855 134.933 36.2109C134.044 37.2227 132.95 38.0088 131.651 38.5693C130.353 39.1299 128.862 39.4102 127.181 39.4102C125.499 39.4102 124.002 39.1299 122.689 38.5693C121.391 38.0088 120.29 37.2227 119.388 36.2109C118.499 35.1855 117.822 33.9893 117.357 32.6221C116.893 31.2412 116.66 29.7441 116.66 28.1309ZM122.566 27.7002V28.1309C122.566 29.0605 122.648 29.9287 122.812 30.7354C122.977 31.542 123.236 32.2529 123.592 32.8682C123.961 33.4697 124.439 33.9414 125.027 34.2832C125.615 34.625 126.333 34.7959 127.181 34.7959C128.001 34.7959 128.705 34.625 129.293 34.2832C129.881 33.9414 130.353 33.4697 130.708 32.8682C131.063 32.2529 131.323 31.542 131.487 30.7354C131.665 29.9287 131.754 29.0605 131.754 28.1309V27.7002C131.754 26.7979 131.665 25.9502 131.487 25.1572C131.323 24.3506 131.057 23.6396 130.688 23.0244C130.332 22.3955 129.86 21.9033 129.272 21.5479C128.685 21.1924 127.974 21.0146 127.14 21.0146C126.306 21.0146 125.595 21.1924 125.007 21.5479C124.433 21.9033 123.961 22.3955 123.592 23.0244C123.236 23.6396 122.977 24.3506 122.812 25.1572C122.648 25.9502 122.566 26.7979 122.566 27.7002ZM154.415 34.1602V7.5H160.362V39H155.01L154.415 34.1602ZM140.388 28.1719V27.7412C140.388 26.0459 140.579 24.5078 140.962 23.127C141.345 21.7324 141.905 20.5361 142.644 19.5381C143.382 18.54 144.291 17.7676 145.371 17.2207C146.451 16.6738 147.682 16.4004 149.062 16.4004C150.361 16.4004 151.496 16.6738 152.467 17.2207C153.451 17.7676 154.285 18.5469 154.969 19.5586C155.666 20.5566 156.227 21.7393 156.65 23.1064C157.074 24.46 157.382 25.9434 157.573 27.5566V28.5C157.382 30.0449 157.074 31.4805 156.65 32.8066C156.227 34.1328 155.666 35.2949 154.969 36.293C154.285 37.2773 153.451 38.043 152.467 38.5898C151.482 39.1367 150.334 39.4102 149.021 39.4102C147.641 39.4102 146.41 39.1299 145.33 38.5693C144.264 38.0088 143.361 37.2227 142.623 36.2109C141.898 35.1992 141.345 34.0098 140.962 32.6426C140.579 31.2754 140.388 29.7852 140.388 28.1719ZM146.294 27.7412V28.1719C146.294 29.0879 146.362 29.9424 146.499 30.7354C146.649 31.5283 146.889 32.2324 147.217 32.8477C147.559 33.4492 147.996 33.9209 148.529 34.2627C149.076 34.5908 149.739 34.7549 150.519 34.7549C151.53 34.7549 152.364 34.5293 153.021 34.0781C153.677 33.6133 154.176 32.9775 154.518 32.1709C154.873 31.3643 155.078 30.4346 155.133 29.3818V26.6953C155.092 25.834 154.969 25.0615 154.764 24.3779C154.572 23.6807 154.285 23.0859 153.902 22.5938C153.533 22.1016 153.068 21.7188 152.508 21.4453C151.961 21.1719 151.312 21.0352 150.56 21.0352C149.794 21.0352 149.138 21.2129 148.591 21.5684C148.044 21.9102 147.6 22.3818 147.258 22.9834C146.93 23.585 146.684 24.2959 146.52 25.1162C146.369 25.9229 146.294 26.7979 146.294 27.7412ZM195.841 34.2012V39H179.947V34.2012H195.841ZM181.957 9.14062V39H175.805V9.14062H181.957ZM193.77 21.3018V25.9775H179.947V21.3018H193.77ZM195.82 9.14062V13.96H179.947V9.14062H195.82ZM203.818 16.8105L207.489 23.5576L211.263 16.8105H217.559L211.283 27.6592L217.846 39H211.529L207.53 31.8633L203.531 39H197.215L203.777 27.6592L197.502 16.8105H203.818ZM226.336 21.0762V47.5312H220.43V16.8105H225.905L226.336 21.0762ZM240.384 27.6592V28.0898C240.384 29.7031 240.192 31.2002 239.81 32.5811C239.44 33.9619 238.894 35.165 238.169 36.1904C237.444 37.2021 236.542 37.9951 235.462 38.5693C234.396 39.1299 233.165 39.4102 231.771 39.4102C230.417 39.4102 229.241 39.1367 228.243 38.5898C227.245 38.043 226.404 37.2773 225.721 36.293C225.051 35.2949 224.511 34.1396 224.101 32.8271C223.69 31.5146 223.376 30.1064 223.157 28.6025V27.4746C223.376 25.8613 223.69 24.3848 224.101 23.0449C224.511 21.6914 225.051 20.5225 225.721 19.5381C226.404 18.54 227.238 17.7676 228.223 17.2207C229.221 16.6738 230.39 16.4004 231.729 16.4004C233.138 16.4004 234.375 16.667 235.441 17.2002C236.521 17.7334 237.424 18.499 238.148 19.4971C238.887 20.4951 239.44 21.6846 239.81 23.0654C240.192 24.4463 240.384 25.9775 240.384 27.6592ZM234.457 28.0898V27.6592C234.457 26.7158 234.375 25.8477 234.211 25.0547C234.061 24.248 233.814 23.5439 233.473 22.9424C233.145 22.3408 232.707 21.876 232.16 21.5479C231.627 21.2061 230.978 21.0352 230.212 21.0352C229.405 21.0352 228.715 21.165 228.141 21.4248C227.58 21.6846 227.122 22.0605 226.767 22.5527C226.411 23.0449 226.145 23.6328 225.967 24.3164C225.789 25 225.68 25.7725 225.639 26.6338V29.4844C225.707 30.4961 225.898 31.4053 226.213 32.2119C226.527 33.0049 227.013 33.6338 227.669 34.0986C228.325 34.5635 229.187 34.7959 230.253 34.7959C231.032 34.7959 231.688 34.625 232.222 34.2832C232.755 33.9277 233.186 33.4424 233.514 32.8271C233.855 32.2119 234.095 31.501 234.231 30.6943C234.382 29.8877 234.457 29.0195 234.457 28.0898ZM250.289 7.5V39H244.362V7.5H250.289ZM254.227 28.1309V27.7002C254.227 26.0732 254.459 24.5762 254.924 23.209C255.389 21.8281 256.065 20.6318 256.954 19.6201C257.843 18.6084 258.937 17.8223 260.235 17.2617C261.534 16.6875 263.024 16.4004 264.706 16.4004C266.388 16.4004 267.885 16.6875 269.197 17.2617C270.51 17.8223 271.61 18.6084 272.499 19.6201C273.401 20.6318 274.085 21.8281 274.55 23.209C275.015 24.5762 275.247 26.0732 275.247 27.7002V28.1309C275.247 29.7441 275.015 31.2412 274.55 32.6221C274.085 33.9893 273.401 35.1855 272.499 36.2109C271.61 37.2227 270.517 38.0088 269.218 38.5693C267.919 39.1299 266.429 39.4102 264.747 39.4102C263.065 39.4102 261.568 39.1299 260.256 38.5693C258.957 38.0088 257.856 37.2227 256.954 36.2109C256.065 35.1855 255.389 33.9893 254.924 32.6221C254.459 31.2412 254.227 29.7441 254.227 28.1309ZM260.133 27.7002V28.1309C260.133 29.0605 260.215 29.9287 260.379 30.7354C260.543 31.542 260.803 32.2529 261.158 32.8682C261.527 33.4697 262.006 33.9414 262.594 34.2832C263.182 34.625 263.899 34.7959 264.747 34.7959C265.567 34.7959 266.271 34.625 266.859 34.2832C267.447 33.9414 267.919 33.4697 268.274 32.8682C268.63 32.2529 268.89 31.542 269.054 30.7354C269.231 29.9287 269.32 29.0605 269.32 28.1309V27.7002C269.32 26.7979 269.231 25.9502 269.054 25.1572C268.89 24.3506 268.623 23.6396 268.254 23.0244C267.898 22.3955 267.427 21.9033 266.839 21.5479C266.251 21.1924 265.54 21.0146 264.706 21.0146C263.872 21.0146 263.161 21.1924 262.573 21.5479C261.999 21.9033 261.527 22.3955 261.158 23.0244C260.803 23.6396 260.543 24.3506 260.379 25.1572C260.215 25.9502 260.133 26.7979 260.133 27.7002ZM284.783 21.6504V39H278.877V16.8105H284.435L284.783 21.6504ZM291.469 16.667L291.366 22.1426C291.079 22.1016 290.73 22.0674 290.32 22.04C289.924 21.999 289.562 21.9785 289.233 21.9785C288.399 21.9785 287.675 22.0879 287.06 22.3066C286.458 22.5117 285.952 22.8193 285.542 23.2295C285.146 23.6396 284.845 24.1387 284.64 24.7266C284.448 25.3145 284.339 25.9844 284.312 26.7363L283.122 26.3672C283.122 24.9316 283.266 23.6123 283.553 22.4092C283.84 21.1924 284.257 20.1328 284.804 19.2305C285.364 18.3281 286.048 17.6309 286.854 17.1387C287.661 16.6465 288.584 16.4004 289.623 16.4004C289.951 16.4004 290.286 16.4277 290.628 16.4824C290.97 16.5234 291.25 16.585 291.469 16.667ZM304.061 39.4102C302.338 39.4102 300.793 39.1367 299.426 38.5898C298.059 38.0293 296.896 37.2568 295.939 36.2725C294.996 35.2881 294.271 34.1465 293.766 32.8477C293.26 31.5352 293.007 30.1406 293.007 28.6641V27.8438C293.007 26.1621 293.246 24.624 293.725 23.2295C294.203 21.835 294.887 20.625 295.775 19.5996C296.678 18.5742 297.771 17.7881 299.057 17.2412C300.342 16.6807 301.791 16.4004 303.404 16.4004C304.977 16.4004 306.371 16.6602 307.588 17.1797C308.805 17.6992 309.823 18.4375 310.644 19.3945C311.478 20.3516 312.106 21.5 312.53 22.8398C312.954 24.166 313.166 25.6426 313.166 27.2695V29.7305H295.529V25.793H307.362V25.3418C307.362 24.5215 307.212 23.79 306.911 23.1475C306.624 22.4912 306.187 21.9717 305.599 21.5889C305.011 21.2061 304.259 21.0146 303.343 21.0146C302.563 21.0146 301.894 21.1855 301.333 21.5273C300.772 21.8691 300.314 22.3477 299.959 22.9629C299.617 23.5781 299.357 24.3027 299.18 25.1367C299.016 25.957 298.934 26.8594 298.934 27.8438V28.6641C298.934 29.5527 299.057 30.373 299.303 31.125C299.562 31.877 299.925 32.5264 300.39 33.0732C300.868 33.6201 301.442 34.0439 302.112 34.3447C302.796 34.6455 303.568 34.7959 304.43 34.7959C305.496 34.7959 306.487 34.5908 307.403 34.1807C308.333 33.7568 309.133 33.1211 309.803 32.2734L312.674 35.3906C312.209 36.0605 311.573 36.7031 310.767 37.3184C309.974 37.9336 309.017 38.4395 307.896 38.8359C306.774 39.2188 305.496 39.4102 304.061 39.4102ZM322.436 21.6504V39H316.529V16.8105H322.087L322.436 21.6504ZM329.121 16.667L329.019 22.1426C328.731 22.1016 328.383 22.0674 327.973 22.04C327.576 21.999 327.214 21.9785 326.886 21.9785C326.052 21.9785 325.327 22.0879 324.712 22.3066C324.11 22.5117 323.604 22.8193 323.194 23.2295C322.798 23.6396 322.497 24.1387 322.292 24.7266C322.101 25.3145 321.991 25.9844 321.964 26.7363L320.774 26.3672C320.774 24.9316 320.918 23.6123 321.205 22.4092C321.492 21.1924 321.909 20.1328 322.456 19.2305C323.017 18.3281 323.7 17.6309 324.507 17.1387C325.313 16.6465 326.236 16.4004 327.275 16.4004C327.604 16.4004 327.938 16.4277 328.28 16.4824C328.622 16.5234 328.902 16.585 329.121 16.667Z" fill="white"/>
<path d="M25.5706 0.216553L46.9737 12.0919V35.8426L25.5706 47.7179L4.16752 35.8426V12.0919L25.5706 0.216553Z" fill="#065E7C"/>
</svg>
